/* XPM */
static char *_135237968514d309751c0627bcdc442nDfrYsZowJP46IA0[] = {
/* columns rows colors chars-per-pixel */
"96 96 5 1 ",
"  c None",
". c black",
"X c #AA470A",
"o c #CA2344",
"O c white",
/* pixels */
"                                                                                                ",
"                                                                                                ",
"                                                                                                ",
"                                                                                                ",
"                                                                                                ",
"                                                                                                ",
"                                                                        XX....                  ",
"                                                                        XX....                  ",
"                                                            XX......XX..OOOOoo........          ",
"                                                            XX......XX..OOOOoo........          ",
"                                                  XX........OOOOooOOoooooooooooooooooo..        ",
"                                                  XX........OOOOooOOoooooooooooooooooo..        ",
"                                              XX..OOOOOOoooooooooooooooooooooooo....oo..        ",
"                                              XX..OOOOOOoooooooooooooooooooooooo....oo..        ",
"                XXXX....                  XX..OOOOOOoooooooooooooooooooooooooo..oooooo..        ",
"                XXXX....                  XX..OOOOOOoooooooooooooooooooooooooo..oooooo..        ",
"              XXOOOOOOOO....          XX..OOOOOOoooooooooooooo..oooooooooooooooooo....          ",
"              XXOOOOOOOO....          XX..OOOOOOoooooooooooooo..oooooooooooooooooo....          ",
"              ..OOooooooOOOOXX........OOoooooooooooooooooooooooo..oooooooooooooo..OO..          ",
"              ..OOooooooOOOOXX........OOoooooooooooooooooooooooo..oooooooooooooo..OO..          ",
"              ..ooooooooooooOOOOOOOOoooooooooooooooooooo............oooooooooo....OO..          ",
"              ..ooooooooooooOOOOOOOOoooooooooooooooooooo............oooooooooo....OO..          ",
"                ........oooooooooooooooooooooooooooooo........XX....oooooooo....OOOO..          ",
"                ........oooooooooooooooooooooooooooooo........XX....oooooooo....OOOO..          ",
"                        ....oooooooooooooooooooooooo....OOOOXXOO....oooooo..  ..OO..            ",
"                        ....oooooooooooooooooooooooo....OOOOXXOO....oooooo..  ..OO..            ",
"                            ......oooo..oooooooooo....OOOOOO......oooooo..      ..              ",
"                            ......oooo..oooooooooo....OOOOOO......oooooo..      ..              ",
"                                  ..oo..oooooooo......OOOO........oooo..                        ",
"                                  ..oo..oooooooo......OOOO........oooo..                        ",
"                    XX....        ....oooooooooooo..............oooooo..                        ",
"                    XX....        ....oooooooooooo..............oooooo..                        ",
"                  XXOOOOOO........oooooooooooooooooo..........oooooo..      ....                ",
"                  XXOOOOOO........oooooooooooooooooo..........oooooo..      ....                ",
"                  ..ooooooOOOOOOoooooooooooooooooooooooooooooooooooo....XX..OOOO..              ",
"                  ..ooooooOOOOOOoooooooooooooooooooooooooooooooooooo....XX..OOOO..              ",
"                  ..oooooooooooooooooooooooooooooooooooooooooooooo............OO....XX          ",
"                  ..oooooooooooooooooooooooooooooooooooooooooooooo............OO....XX          ",
"                    ......oooooooooooooooooooooooooooooooooooooooo..................OO..        ",
"                    ......oooooooooooooooooooooooooooooooooooooooo..................OO..        ",
"                          ..........oooooooooooooooooooooooooooooo................OOOO..        ",
"                          ..........oooooooooooooooooooooooooooooo................OOOO..        ",
"                                    ......oooooooooooooooooooooo......................oo..      ",
"                                    ......oooooooooooooooooooooo......................oo..      ",
"                                    ..oooo..oooooooooooooooooooo..oooo............oooooo..      ",
"                                    ..oooo..oooooooooooooooooooo..oooo............oooooo..      ",
"                                  ....oooooooooooooooooooo....oooooooooooooooooooooooo..        ",
"                                  ....oooooooooooooooooooo....oooooooooooooooooooooooo..        ",
"                                  ......oooooooooooooooo..OOOO..oooooooooooooooooooo..          ",
"                                  ......oooooooooooooooo..OOOO..oooooooooooooooooooo..          ",
"                                  ........oooooooooooo..OOOOOO..oooooooooooo........            ",
"                                  ........oooooooooooo..OOOOOO..oooooooooooo........            ",
"                                ..OOoo......oooooooooo..OOOOoooo............                    ",
"                                ..OOoo......oooooooooo..OOOOoooo............                    ",
"                                ..ooOOoooooo..oooooooo..OOOOoooo....                            ",
"                                ..ooOOoooooo..oooooooo..OOOOoooo....                            ",
"                              ......ooOOoooooooooooooooo..OOoooooo..                            ",
"                              ......ooOOoooooooooooooooo..OOoooooo..                            ",
"                              ..........oooooooooooooo....OOoooooo....                          ",
"                              ..........oooooooooooooo....OOoooooo....                          ",
"                            ..............oooooooooooo....OOoooooo..oo....                      ",
"                            ..............oooooooooooo....OOoooooo..oo....                      ",
"                            ..ooOOOOoooooo..oooooooooo....OOooooooooooooOO....                  ",
"                            ..ooOOOOoooooo..oooooooooo....OOooooooooooooOO....                  ",
"                          ..ooOOOOOOoooooooooooooooo..  ..OOooooooooooooooOOOO....              ",
"                          ..ooOOOOOOoooooooooooooooo..  ..OOooooooooooooooOOOO....              ",
"                          ....ooOOoooooooooooooooooo..  ..OOooooooooooooooooooOOOO..            ",
"                          ....ooOOoooooooooooooooooo..  ..OOooooooooooooooooooOOOO..            ",
"                        ..........oooooooooooooooooo....OOOOoooooooo..ooooooooooOO..            ",
"                        ..........oooooooooooooooooo....OOOOoooooooo..ooooooooooOO..            ",
"                        ............oooooooooooooo..  ..OOooOOoooo..oooooooooooooooo..          ",
"                        ............oooooooooooooo..  ..OOooOOoooo..oooooooooooooooo..          ",
"                      ....OOOOOO......oooooooooooo....OOOOOOoooooo..oooooooooooooooo..          ",
"                      ....OOOOOO......oooooooooooo....OOOOOOoooooo..oooooooooooooooo..          ",
"                      ..OOoooooooooooo..oooooooooo....ooOOooOOoo..oooooooooooooooooooo..        ",
"                      ..OOoooooooooooo..oooooooooo....ooOOooOOoo..oooooooooooooooooooo..        ",
"                    ..OOoooooooooooooooooooooooo....ooOOooOOoooo..oooooooooooooooooooo..        ",
"                    ..OOoooooooooooooooooooooooo....ooOOooOOoooo..oooooooooooooooooooo..        ",
"                    ..OOoooooooooooooooooooooooo..ooOOooOOoooooo..oooooooooooooooooooo..        ",
"                    ..OOoooooooooooooooooooooooo..ooOOooOOoooooo..oooooooooooooooooooo..        ",
"                  ..OOoooooooooooooooooooooooo..ooOOooOOooOOoooo..oooooooooooooooooooooo..      ",
"                  ..OOoooooooooooooooooooooooo..ooOOooOOooOOoooo..oooooooooooooooooooooo..      ",
"                  ..OOoooooooooooooooooooo....ooOOooOOooOOoooooo..oooooooooooooooooooooo..      ",
"                  ..OOoooooooooooooooooooo....ooOOooOOooOOoooooo..oooooooooooooooooooooo..      ",
"                ..OOoooooooooooooooooo....ooooOOooOOooOOoooooo..oooooooooooooooooooooooooo..    ",
"                ..OOoooooooooooooooooo....ooooOOooOOooOOoooooo..oooooooooooooooooooooooooo..    ",
"                ..OOoooooooooooo......ooooooOOooOOooOOooOOoooo..oooooooooooooooooooooooooo..    ",
"                ..OOoooooooooooo......ooooooOOooOOooOOooOOoooo..oooooooooooooooooooooooooo..    ",
"              ..OOoooooooooooo..ooooooooooOOooOOooOOooOOoooooo..oooooooooooooooooooooooooo..    ",
"              ..OOoooooooooooo..ooooooooooOOooOOooOOooOOoooooo..oooooooooooooooooooooooooo..    ",
"            ..OOooOOoooooo....ooooooooooooooOOooOOooOOoooooooo..oooooooooooooooooooooooooooo..  ",
"            ..OOooOOoooooo....ooooooooooooooOOooOOooOOoooooooo..oooooooooooooooooooooooooooo..  ",
"          ..OOooOOooOOoo..ooooooooooooOOooOOooOOooOOOOOOoooo..oooooooooooooooooooooooooooooo..  ",
"          ..OOooOOooOOoo..ooooooooooooOOooOOooOOooOOOOOOoooo..oooooooooooooooooooooooooooooo..  ",
"        ..OOooOOooOOoo..ooooooooooooOOooOOooOOooOOOOOOoooooo..oooooooooooooooooooooooooooooo..  ",
"        ..OOooOOooOOoo..ooooooooooooOOooOOooOOooOOOOOOoooooo..oooooooooooooooooooooooooooooo..  "
};
