/* XPM */
static char *_92edce0a03341dfd7bac5526d410402HyShitmh0zx8rOvd[] = {
/* columns rows colors chars-per-pixel */
"50 50 26 1 ",
"  c #1D131E",
". c #2B1C1D",
"X c #3E2613",
"o c #2E2533",
"O c #62351C",
"+ c #744B30",
"@ c #3D7170",
"# c #3D7670",
"$ c #3D7B70",
"% c #3D7F70",
"& c #46425D",
"* c #726B7E",
"= c #3D8170",
"- c #3D8570",
"; c #3D8B70",
": c #3D8C70",
"> c #3C8E70",
", c #3C9270",
"< c #3C9470",
"1 c #3C9570",
"2 c #3C9B70",
"3 c #3C9C70",
"4 c #3C9D70",
"5 c #3CA370",
"6 c #3CA470",
"7 c #B19998",
/* pixels */
"55555555555555555555555555555555555555555555555555",
"555555555XXXXXXXXXXXXXXXXXXXXXXXXXXXXXXXX555555555",
"555555555X...X.XX.XXXX.OOX.XXXO.XX.XXXXXX555555555",
"555555555X.O.X.XX.XX.X.OOX.X.XO.XX.XOX.XX555555555",
"555555555X.O.X.XX.OO.XOOOX.X.XOOXXOXOX.XX555555555",
"555555555XOOOXOXXOOO.XOOOXOXOXOOXXOXOXOXX555555555",
"555555555XOOOXOXXOOOOXOOOXOXOXOOXXOXOXOXX555666555",
"555555555&&&&&***********************&&&&52<<46555",
"555555555&&&**&*********************&**&&4-#%<5555",
"555555555&&&**&*********************&**&&-@#>45555",
"555555555&&&&&***********************&&&&=%;465555",
"555555555XXXXXXXXXXXXXXXXXXXXXXXXXXXXXXXX424555555",
"555555555XOOO.XXXOOOOXOOOOXXOXOOOXXXXOOXX566555555",
"555555555XOOO.XXXOOOOXOOOOXXOXOOOXXXXOOXX555555555",
"555555555XOOO.XXXOOOOXOOOOXXOXOOOXX.XOOXX555555555",
"555555555XOO+.XXX++++X++++XX+X+++XX.X++XX555555555",
"555555555XOO+.XXX++++X++++XX+.+++XX+.++XX555555555",
"555555555XOO+.XXX++++X++++XX+.+++XX+.++XX555555555",
"555555555X+O.++X+O+++X++++OX+O+O+X++.++XX555555555",
"555555555X+O.++X+O+++X++++OX+O+O+X++.++XX555555555",
"555555555X+O+++X+O+++X++++OX+O+O+X++.++XX555555555",
"555555555X+O+++X++O++X+++OOX+O+.+X+++++XX555555555",
"555555555X+O+++X++O++X+++O+X+O+.+X+OoO+XX555555555",
"555555555X+O++OX+++O+X+++O+X+O+.+X+ * +XX555555555",
"555555555X+O++OX+++O+X+++O+X+O+O+X+   +XX555555555",
"555555555X+O++OX.+O++X+++O+X+.+O+X+o&o+XX555555555",
"555555555X+O++OX.+O++X+++O+X+.+O+X+ 7 +XX555555555",
"555555555X++O+OX..+++X+++O+X+O+O+X+ 7 +XX555555555",
"555555555X++O++XOO+++X+++O+X+O+++X+o*o+XX555555555",
"555555555X++O++X+O+++X+++O+X+++++X+o*o+XX555555555",
"555555555X++O++X+O+++X+++O+X+++++X+o&o+XX555555555",
"556655555X+++O+X+O+++X+++O+X+++++X+ & +XX555555555",
"531125555X+++O+X+O+++X+++O+X++O++X+   OXX555555555",
"5,$#;3555X+++O+X+O+++X+++O+X++.++XO.++OXX555555555",
"52;##-255X++++OX+O+++X+++O+X++.++X..++OXX555555555",
"563;##,51X++++OXO++++X+++O+X+O+O+X.O++OXX222555555",
"5553:$12=X++++OXO++++X+++O+X+O++OX.+++OXX$$;455555",
"55563:22:XO++++X++++OX+++O+XOO.++X++++OXX@%<555555",
"555565556X.++++X++++OX+++O+X+O.O+X++++.XX%<5555555",
"555565555X.++++X++++OX+++O+X+O.O+X++++.XX255555555",
"555555555X*7**77777777777777777777777**..555555555",
"555555555X**77*777777777777777777777*77..555555555",
"555555555X**77*777777777777777777777*77..555555555",
"555555555X*7**77777777777777777777777**..555555555",
"555555555XXXXXXXXXXXXXXXXXXXXXXXXXXXXXXXX555555555",
"555555555XO.OOOXXOO.OXOOOOXXO.OOOXOOO.OXX555555555",
"555555555XO.OOOXX+O.OXOOOOXXO.OOOXOOO.OXX555555555",
"555555555X+.OO+XX++.OX+++OXX+++++X+++.OXX555555555",
"555555555XXXXXXXXXXXXXXXXXXXXXXXXXXXXXXXX555555555",
"55555555555555555555555555555555555555555555555555"
};
