/* XPM */
static char *result[] = {
/* columns rows colors chars-per-pixel */
"50 50 52 1 ",
"  c #3D7170",
". c #3D7270",
"X c #3D7370",
"o c #3D7470",
"O c #3D7570",
"+ c #3D7670",
"@ c #3D7770",
"# c #3D7870",
"$ c #3D7970",
"% c #3D7A70",
"& c #3D7B70",
"* c #3D7C70",
"= c #3D7D70",
"- c #3D7E70",
"; c #3D7F70",
": c #3D8070",
"> c #3D8170",
", c #3D8270",
"< c #3D8470",
"1 c #3D8570",
"2 c #3D8670",
"3 c #3D8770",
"4 c #3D8870",
"5 c #3D8970",
"6 c #3D8A70",
"7 c #3D8B70",
"8 c #3C8C70",
"9 c #3D8C70",
"0 c #3C8D70",
"q c #3C8E70",
"w c #3C8F70",
"e c #3C9070",
"r c #3C9170",
"t c #3C9270",
"y c #3C9370",
"u c #3C9470",
"i c #3C9570",
"p c #3C9670",
"a c #3C9770",
"s c #3C9870",
"d c #3C9970",
"f c #3C9A70",
"g c #3C9B70",
"h c #3C9C70",
"j c #3C9D70",
"k c #3C9E70",
"l c #3C9F70",
"z c #3CA070",
"x c #3CA170",
"c c #3CA270",
"v c #3CA370",
"b c #3CA470",
/* pixels */
"vvvvvvvvvvvvvvvvvvvvvvvvvvvvvvvvvvvvvvvvvvvvvvvvvv",
"vvvvvvvvvvvvvvvvvvvvvvvvvvvvvvvvvvvvvvvvvvvvvvvvvv",
"vvvvvvvvvvvvvvvvvvvvvvvvvvvvvvvvvvvvvvvvvvvvvvvvvv",
"vvvvvvvvvvvvvvvvvvvvvvvvvvvvvvvvvvvvvvvvvvvvvvvvvv",
"vvvvvvvvvvvvvvvvvvvvvvvvvvvvvvvvvvvvvvvvvvvvvvvvvv",
"vvvvvvvvvvvvvvvvvvvvvvvvvvvvvvvvvvvvvvvvvvvvvvvvvv",
"vvvvvvvvvvvvvvvvvvvvvvvvvvvvvvvvvvvbbvvvvvvbbvvvvv",
"vvvvvvvvvvvvvvvvvvvvvvvvvvvvvvvvvcgipjvvvcfipkvvvv",
"vvvvvvvvvvvvvvvvvvvvvvvvvvvvvvvvvx0##0zvvj1O=ivvvv",
"vvvvvvvvvvvvvvvvvvvvvvvvvvvvvvvvvcs3X#7jd1o#qhvvvv",
"vvvvvvvvvvvvvvvvvvvvvvvvvvvvvvvvvvvg<&1gi:*7zvvvvv",
"vvvvvvvvvvvvvvvvvvvvvvvvvvvvvvvvvvvxjgjxzhgkcvvvvv",
"vvvvvvvvvvvvvvvvvvvvvvvvvvvvvvvvvvvvbbbvvbbbvvvvvv",
"vvvvvvvvvvvvvvvvvvvvvvvvvvvvvvvvvvvvvvvvvvvvvvvvvv",
"vvvvvvvvvvvvvvvvvvvvvvvvvvvvvvvvvvvvvvvvvvvvvvvvvv",
"vvvvvvvvvvvvvvvvvvvvvvvvvvvbvvvvvbbbvvvvvvvvvvvvvv",
"vvvvvvvvvvvvvvvvvvvvvvvvvvxlcvvvclklcvvvvvvvvvvvvv",
"vvvvvvvvvvvvvvvvvvvvvvvvvvu4gbvbf2;6kbvvvvvvvvvvvv",
"vvvvvvvvvvvvvvvvvvvvvvvvvvi3wfxf5X#7kbvvvvvvvvvvvv",
"vvvvvvvvvvvvvvvvvvvvvvvvvvcf>5h3X+qzcvvvvvvvvvvvvv",
"vvvvvvvvvvvvvvvvvvvvvvvvvvbj-<g,#wjvvvvvvvvvvvvvvv",
"vvvvvvvvvvvvvvvvvvvvvvvvvvbk6qk07lbvvvvvvvvvvvvvvv",
"vvvvvvvvvvvvvvvvvvvvvvvvvvvcklcllcvvvvvvvvvvvvvvvv",
"vvvvvvvvvvvvvvvvvvvvvvvvvvvvbbvbbvvvvvvvvvvvvvvvvv",
"vvvvvvvvvvvvvvvvvvvvvvvvvvvvvvvvvvvvvvvvvvvvvvvvvv",
"vvvvvvvvvvvvvvvvvvvvvvvvvvvvvvvvvvvvvvvvvvvvvvvvvv",
"vvvvvvvvvvvvvvvvvvvvvvvvvvvvvvvvvvvvvvvvvvvvvvvvvv",
"vvvvvvvvvvvvvvvvvvvvvvvvvvvvvvvvvvvvvvvvvvvvvvvvvv",
"vvvvvvvvvvvvvvvvvvvvvvvvvvvvvvvvvvvvvvvvvvvvvvvvvv",
"vvvvvvvvvvvvvvvvvvvvvvvvvvvvvvvvvvvvvvvvvvvvvvvvvv",
"vvvvvvvvvvvvvvvvvvvvvvvvvvvvvvvvvvvvvvvvvvvvvvvvvv",
"vvbbvvvvvvvvvvvvvvvvvvvvvvvvvvvvvvvvvvvvvvvvvvvvvv",
"vjiigvvvvvbbvvvvvvvvvvvvvvvvvvvvvvvvvvvvvvvvvvvvvv",
"ct&+4kvvvcxxcvvvvvvvvvvvvvvvvvvvvvvvvvvvvvvvvvvvvv",
"vg7++5gbcu33pcvvvvvvvvvvvvvvvvvvvbbbvvvvvbbbvvvvvv",
"vbk5+Oyxs>.*tcvvvvvvvvvvvvvvvvvvzfsgcvvvldshcvvvvv",
"vvck9$ud:.*izvvvvvvvvvvvvvvvvvvvs:#<hvvct*$6zbvvvv",
"vvvbgeghq6tzbvvvvvvvvvvvvvvvvvvvh8#o3dlr= >uxvvvvv",
"vvvvvcvvcccvvvvvvvvvvvvvvvvvvvvvvz8@X0h2#;avvvvvvv",
"vvvvvvvvvvvvvvvvvvvvvvvvvvvvvvvvvvke#7zgsfzvvvvvvv",
"vvvvvvvvvvvvvvbvvbjtqizvvvvvvvvvvvbkqicbbbvvvvvvvv",
"vvvvvvvvvvvvvclzczr@O2kbvvvvvvvvvvvcxcvvvvvvvvvvvv",
"vvvvvvvvvvvvbk6rk0$.3dxvvvvvvvvvvvvvvvvvvvvvvvvvvv",
"vvvvvvvvvvvvbg*-e5,2svvvvvvvvvvvvvvvvvvvvvvvvvvvvv",
"vvvvvvvvvvvvbh: %ullxvvvvvvvvvvvvvvvvvvvvvvvvvvvvv",
"vvvvvvvvvvvvvzp,+ibbvvvvvvvvvvvvvvvvvvvvvvvvvvvvvv",
"vvvvvvvvvvvvvvvi2dvvvvvvvvvvvvvvvvvvvvvvvvvvvvvvvv",
"vvvvvvvvvvvvvvvzkxvvvvvvvvvvvvvvvvvvvvvvvvvvvvvvvv",
"vvvvvvvvvvvvvvvvbvvvvvvvvvvvvvvvvvvvvvvvvvvvvvvvvv",
"vvvvvvvvvvvvvvvvvvvvvvvvvvvvvvvvvvvvvvvvvvvvvvvvvv"
};
