/* XPM */
static char *result[] = {
/* columns rows colors chars-per-pixel */
"50 50 58 1 ",
"  c #272736",
". c #5E315B",
"X c #3D7170",
"o c #3D7270",
"O c #3D7370",
"+ c #3D7470",
"@ c #3D7570",
"# c #3D7670",
"$ c #3D7770",
"% c #3D7870",
"& c #3D7970",
"* c #3D7A70",
"= c #3D7B70",
"- c #3D7C70",
"; c #3D7D70",
": c #3D7E70",
"> c #3D7F70",
", c #8C3F5D",
"< c #BA6156",
"1 c #3D8070",
"2 c #3D8170",
"3 c #3D8270",
"4 c #3D8470",
"5 c #3D8570",
"6 c #3D8670",
"7 c #3D8770",
"8 c #3D8870",
"9 c #3D8970",
"0 c #3D8A70",
"q c #3D8B70",
"w c #3C8C70",
"e c #3D8C70",
"r c #3C8D70",
"t c #3C8E70",
"y c #3C8F70",
"u c #3C9070",
"i c #3C9170",
"p c #3C9270",
"a c #3C9370",
"s c #3C9470",
"d c #3C9570",
"f c #3C9670",
"g c #3C9770",
"h c #3C9870",
"j c #3C9970",
"k c #3C9A70",
"l c #3C9B70",
"z c #3C9C70",
"x c #3C9D70",
"c c #3C9E70",
"v c #3C9F70",
"b c #3CA070",
"n c #3CA170",
"m c #3CA270",
"M c #3CA370",
"N c #3CA470",
"B c #F2A65E",
"V c #FFE478",
/* pixels */
"MMMMMMMMMMMMMMMMMMMMMMMMMMMMMMMMMMMMMMMMMMMMMMMMMM",
"MMMMMMMMMMMMMMMMMMMMMMMMMMMMMMMMMMMMMMMMMMMMMMMMMM",
"MMMMMMMMMMMMMMMMMMMMMMMMMMMMMMMMMMMMMMMMMMMMMMMMMM",
"MMMMMMMMMMMMMMMMMMMMMMMMMMMMMMMMMMMMMMMMMMMMMMMMMM",
"MMMMMMMMMMMMMMMMMMMMMMMMMMMMMMMMMMMMMMMMMMMMMMMMMM",
"MMMMMMMMMMMMMMMMMMMMMMMMMMMMMMMMMMMMMMMMMMMMMMMMMM",
"MMMMMMMMMMMMMMMMMMMMMMMMMMMMMMMMMMMNNMMMMMMNNMMMMM",
"MMMMMMMMMMMMMMMMMMMMMMMMMMMMMMMMMmldfxMMMmkdfcMMMM",
"MMMMMMMMMMMMMMMMMMMMMMMMMMMMMMMMMnr%%rbMMx5@;dMMMM",
"MMMMMMMMMMMMMMMMMMMMMMMMMMMMMMMMMmh7O%qxj5+%tzMMMM",
"MMMMMMMMMMMMMMMMMMMMMMMMMMMMMMMMMMMl4=5ld1-qbMMMMM",
"MMMMMMMMMMMMMMMMMMMMMMMMMMMMMMMMMMMnxlxnbzlcmMMMMM",
"MMMMMMMMMMMMMMMMMMMMMMMMMMMMMMMMMMMMNNNMMNNNMMMMMM",
"MMMMMMMMMMMMMMMMMMMMMMMMMMMMMMMMMMMMMMMMMMMMMMMMMM",
"MMMMMMMMMMMMMMMMMMMMMMMMMMMMMMMMMMMMMMMMMMMMMMMMMM",
"MMMMMMMMMMMMMMMMMMMMMMMMMMMNMMMMMNNNMMMMMMMMMMMMMM",
"MMMMMMMMMMMMMMMMMMMMMMMMMMnvmMMMmvcvmMMMMMMMMMMMMM",
"MMMMMMMMMMMMMMMMMMMMMMMMMMs8lNMNk6>0cNMMMMMMMMMMMM",
"MMMMMMMMMMMMMMMMMMMMM        knk9O%qcNMMMMMMMMMMMM",
"MMMMMMMMMMMMMMMMMMMMM <<<<<, 9z7O#tbmMMMMMMMMMMMMM",
"MMMMMMMMMMMMMMMMMMMMM <<<<<, 4l3%yxMMMMMMMMMMMMMMM",
"MMMMMMMMMMMMMMMMMMMMMM BBB< 0tcrqvNMMMMMMMMMMMMMMM",
"MMMMMMMMMMMMMMMMMMMMM BVVBB< vmvvmMMMMMMMMMMMMMMMM",
"MMMMMMMMMMMMMMMMMMMM BBVBBB<< MNNMMMMMMMMMMMMMMMMM",
"MMMMMMMMMMMMMMMMMMMM B,,BB,.< MMMMMMMMMMMMMMMMMMMM",
"MMMMMMMMMMMMMMMMMMMM B,,,,,.< MMMMMMMMMMMMMMMMMMMM",
"MMMMMMMMMMMMMMMMMMMM B,B,,B.< MMMMMMMMMMMMMMMMMMMM",
"MMMMMMMMMMMMMMMMMMMM B,BBBB.< MMMMMMMMMMMMMMMMMMMM",
"MMMMMMMMMMMMMMMMMMMM BBBBBB<< MMMMMMMMMMMMMMMMMMMM",
"MMMMMMMMMMMMMMMMMMMMM BBB<<< MMMMMMMMMMMMMMMMMMMMM",
"MMMMMMMMMMMMMMMMMMMMMM      MMMMMMMMMMMMMMMMMMMMMM",
"MMNNMMMMMMMMMMMMMMMMMMMMMMMMMMMMMMMMMMMMMMMMMMMMMM",
"MxddlMMMMMNNMMMMMMMMMMMMMMMMMMMMMMMMMMMMMMMMMMMMMM",
"mp=#8cMMMmnnmMMMMMMMMMMMMMMMMMMMMMMMMMMMMMMMMMMMMM",
"Mlq##9lNms77fmMMMMMMMMMMMMMMMMMMMNNNMMMMMNNNMMMMMM",
"MNc9#@anh2o-pmMMMMMMMMMMMMMMMMMMbkhlmMMMvjhzmMMMMM",
"MMmce&sj1o-dbMMMMMMMMMMMMMMMMMMMh1%4zMMmp-&0bNMMMM",
"MMMNlulzt0pbNMMMMMMMMMMMMMMMMMMMzw%+7jvi;X2snMMMMM",
"MMMMMmMMmmmMMMMMMMMMMMMMMMMMMMMMMbw$Orz6%>gMMMMMMM",
"MMMMMMMMMMMMMMMMMMMMMMMMMMMMMMMMMMcu%qblhkbMMMMMMM",
"MMMMMMMMMMMMMMNMMNxptdbMMMMMMMMMMMNctdmNNNMMMMMMMM",
"MMMMMMMMMMMMMmvbmbi$@6cNMMMMMMMMMMMmnmMMMMMMMMMMMM",
"MMMMMMMMMMMMNc0icr&o7jnMMMMMMMMMMMMMMMMMMMMMMMMMMM",
"MMMMMMMMMMMMNl-:u936hMMMMMMMMMMMMMMMMMMMMMMMMMMMMM",
"MMMMMMMMMMMMNz1X*svvnMMMMMMMMMMMMMMMMMMMMMMMMMMMMM",
"MMMMMMMMMMMMMbf3#dNNMMMMMMMMMMMMMMMMMMMMMMMMMMMMMM",
"MMMMMMMMMMMMMMMd6jMMMMMMMMMMMMMMMMMMMMMMMMMMMMMMMM",
"MMMMMMMMMMMMMMMbcnMMMMMMMMMMMMMMMMMMMMMMMMMMMMMMMM",
"MMMMMMMMMMMMMMMMNMMMMMMMMMMMMMMMMMMMMMMMMMMMMMMMMM",
"MMMMMMMMMMMMMMMMMMMMMMMMMMMMMMMMMMMMMMMMMMMMMMMMMM"
};
