/* XPM */
static char *result[] = {
/* columns rows colors chars-per-pixel */
"50 50 126 2 ",
"   c #000000",
".  c #090303",
"X  c gray5",
"o  c #150505",
"O  c #180707",
"+  c #1B0B0B",
"@  c #041209",
"#  c #081B0E",
"$  c #1D130A",
"%  c #161616",
"&  c gray11",
"*  c #260E0E",
"=  c #2C0F0F",
"-  c #3D0F0F",
";  c #2E1C0A",
":  c #341313",
">  c #3C1717",
",  c #321818",
"<  c #072415",
"1  c #0B2B15",
"2  c #0C2F1E",
"3  c #0B3419",
"4  c #1F2624",
"5  c #123E21",
"6  c gray15",
"7  c #2A2A2A",
"8  c #373737",
"9  c #3E3E3E",
"0  c #4C1212",
"q  c #421B1B",
"w  c #4F1B1B",
"e  c #571717",
"r  c #5E1717",
"t  c #521A1A",
"y  c #631C1C",
"u  c #4B2D0F",
"i  c #4B2222",
"p  c #532727",
"a  c #552B2B",
"s  c #5B2D2D",
"d  c #543636",
"f  c #5F3131",
"g  c #653535",
"h  c #693737",
"j  c #6D3A3A",
"k  c #723D3D",
"l  c #144424",
"z  c #1B4023",
"x  c #134824",
"c  c #15452D",
"v  c #1A522B",
"b  c #184E33",
"n  c #1C573A",
"m  c #37423D",
"M  c #245338",
"N  c #1F6B38",
"B  c #6B4219",
"V  c #70451B",
"C  c #7C4F23",
"Z  c #714E2B",
"A  c #3E4F42",
"S  c #275442",
"D  c #3D5A46",
"F  c #206141",
"G  c #286745",
"H  c #256B48",
"J  c #247940",
"K  c #3D704C",
"L  c #2C7E56",
"P  c #3D7470",
"I  c #3D7B70",
"U  c #46534E",
"Y  c #586761",
"T  c #892525",
"R  c #942929",
"E  c #9C2C2C",
"W  c #A62F2F",
"Q  c #835426",
"!  c #A16933",
"~  c #BB653C",
"^  c #BC7F41",
"/  c #298D4A",
"(  c #2B914B",
")  c #2E8158",
"_  c #31885D",
"`  c #32A759",
"'  c #37AF5D",
"]  c #358464",
"[  c #359364",
"{  c #399D6C",
"}  c #3D8470",
"|  c #3D8B70",
" . c #3C9470",
".. c #3C9C70",
"X. c #3AB561",
"o. c #3CA370",
"O. c #5C846D",
"+. c #39C667",
"@. c #C58544",
"#. c #D18D49",
"$. c #CF9357",
"%. c #C2996B",
"&. c #DCA064",
"*. c #E4AF76",
"=. c #7F948C",
"-. c #89A198",
";. c #92A39A",
":. c #92ABA2",
">. c #97B0A6",
",. c #9AB4AA",
"<. c #A2B8AF",
"1. c #A5BCB3",
"2. c #E9B58E",
"3. c #E1BD91",
"4. c #E6C297",
"5. c #EFC297",
"6. c #F5CA99",
"7. c #FAD4A5",
"8. c #FFD8A8",
"9. c #FDDFBC",
"0. c #B6C7C1",
"q. c #C3D1CC",
"w. c #E9E6E6",
"e. c #E4E9E7",
"r. c #F3F3F3",
"t. c #FFFFFF",
/* pixels */
"o.o.o.o.o.o.o.o.o.o.o.o.o.o.o.o.o.o.o.o.o.o.o.o.o.o.o.o.o.o.o.o.o.o.o.o.o.o.o.o.o.o.o.o.o.o.o.o.o.o.",
"o.o.o.o.o.o.o.o.o.o.o.o.o.o.o.o.o.o.o.o.o.o.o.2 o.G   ) o.o.o.o.o.o.o.o.o.o.o.o.o.o.o.o.o.o.o.o.o.o.",
"o.o.o.o.o.o.o.o.o.o.o.o.o.o.o.o.o.o.o.o.o.o.  -   E   o.o.o.o.o.o.o.o.o.o.o.o.o.o.o.o.o.o.o.o.o.o.o.",
"o.o.o.o.o.o.o.o.o.o.o.o.o.o.o.o.o.o.o.o.o.  W - W E   W R   o.o.o.o.o.o.o.o.o.o.o.o.o.o.o.o.o.o.o.o.",
"o.o.o.o.o.o.o.o.o.o.o.o.o.o.o.o.o.o.o.o.)   W     r y   0 F o.o.o.o.o.o.o.o.o.o.o.o.o.o.o.o.o.o.o.o.",
"o.o.o.o.o.o.o.o.o.o.o.o.o.o.o.o.o.o.o.o.F   W -   #.#.W R W   o.o.o.o.o.o.o.o.o.o.o.o.o.o.o.o.o.o.o.",
"o.o.o.o.o.o.o.o.o.o.o.o.o.o.o.o.o.o.o.o.F W W   #.8.8.8.W     o.o.o.o.o.o.o.o.o.o.o.o.o.o.o.o.o.o.o.",
"o.o.o.o.o.o.o.o.o.o.o.o.o.o.o.o.o.o.o.o.l e   u #.Z *.8.~   e [ o.o... . ...o.o.o.o... .....o.o.o.o.",
"o.o.o.o.o.o.o.o.o.o.o.o.o.o.o.o.o.o.o.o.o.    ^ #.:.  8.6.  o.o.o.o.| P I | ..o.o.o.} P }  .o.o.o.o.",
"o.o.o.o.o.o.o.o.o.o.o.o.o.o.o.o.o.o.o.o.  W   ^ 8.r.t.#.^     o.o.o...| P I | .. .} P P | ..o.o.o.o.",
"o.o.o.o.o.o.o.o.o.o.o.o.o.o.{ n n b : T t   =.C 8.9.2.8.3.n o.o.o.o.o...} I } .. .} } | o.o.o.o.o.o.",
"o.o.o.o.o.o.o.o.o.o.o.o.o.o.  > W W W W W   W   #.8.V V 5.  o.o.o.o.o.o.......o.o... ...o.o.o.o.o.o.",
"o.o.o.o.o.o.o.o.o.o.o.o.o.o.      > W W y         $ 8.8.    o.o.o.o.o.o.o.o.o.o.o.o.o.o.o.o.o.o.o.o.",
"o.o.o.o.o.o.o.o.o.o.o.o.o.o.. W W :   . v   ; 6.4 <.t.>.-.7.< o.o.o.o.o.o.o.o.o.o.o.o.o.o.o.o.o.o.o.",
"o.o.o.o.o.o.o.o.o.o.o.o.o.o.. W W E   J   9 9 4.  q t.k : #.8.L o.o.o.o.o.o.o.o.o.o.o.o.o.o.o.o.o.o.",
"o.o.o.o.o.o.o.o.o.o.o.o.o.o.  W W :     K 9 9 ^ 8.. ,.k : #.8.  o.o.o.o.o.o.o.o.o.o.o.o.o.o.o.o.o.o.",
"o.o.o.o.o.o.o.o.o.o.o.o.o.o.      o 8 X.+.9 X.^ 8.. ;.w.h #.&.5 b o.....o.o.o.o.o.o.o.o.o.o.o.o.o.o.",
"o.o.o.o.o.o.o.o.o.o.o.o.o.o.. W   3 +.9 % +.+.    . k k g #.      } } | ..o.o.o.o.o.o.o.o.o.o.o.o.o.",
"o.o.o.o.o.o.o.o.o.o.o.o.o.o.X W   / +.9 % +.  6.8.@.> k h   #.8.    I | ..o.o.o.o.o.o.o.o.o.o.o.o.o.",
"o.o.o.o.o.o.o.o.o.o.o.o.o.o.. t   ' X   6   @.8.8.$.> h h   8.8.8.  I { o.o.o.o.o.o.o.o.o.o.o.o.o.o.",
"o.o.o.o.o.o.o.o.o.o.o.o.o.        8   9 9   #.8.V @.k ,.w.  #.%.#.    o.o.o.o.o.o.o.o.o.o.o.o.o.o.o.",
"o.o.o.o.o.o.o.o.o.o.o.o.o.  .     & A +.+.  B Q @ . > j j .   ! B   @ { o.o.o.o.o.o.o.o.o.o.o.o.o.o.",
"o.o.o.o.o.o.o.o.o.o.o.o.o.  w   +.9 +.9 9   ,.m J . > k k k > Y ,.  3   o.o.o.o.o.o.o.o.o.o.o.o.o.o.",
"o.o.o.o.o.o.o.o.o.o.o.o.o.  w   9 +.9 9 %   ,.m J . > ,.w.k k Y ,.  N   o.o.o.o.o.o.o.o.o.o.o.o.o.o.",
"o.o.o.o.o.o.o.o.o.o.o.o.o.  t   J +.9     J   m J . k k k k > Y         o.o.o.o.o.o.o.o.o.o.o.o.o.o.",
"o.o.o.o.o.o.o.o.o.o.o.o.o.          J     J   9   ,.,.t.t.,.,.    J 3   o.o.o.o.o.o.o.o.o.o.o.o.o.o.",
"o.o.o.o.o.o.o.o.o.o.o.o.o.  ,         ( 7 9 +.+.  1.,.,.0.,.t.  J     o.o.o.o.o.o.o.o.o.o.o.o.o.o.o.",
"o.o.o.o.o.o.o.o.o.o.o.o.o.  t >       ( 7 9 +.+.  d > t.t.> t.  J   o.o.o.o.o.o.o.o.o.o.o.o.o.o.o.o.",
"o.o.o.o.o.o.o.o.o.o.o.o.o.  O W W >   @ ` +.A A   > j k j j > l @   o.o.o.o.o.o.o.o.o.o.o.o.o.o.o.o.",
"o.o.o.o.o.o.o.o.o.o.o.o.o.o.    > >     +.+.9 9   > k k k > > l     o.o.o.o.o.o.o.o.o.o.o.o.o.o.o.o.",
"o.o.o.o.o.o.o.o.o.o.o.o.o.o.o.c c   # # X.X.D D   q k k h > k l #   o.o.o.o.o.o.o.o.o.o.o.o.o.o.o.o.",
"o.o.o.o.o.o.o.o.o.o.o.o.o.o.o.o.o.[ J   9 +.+./   > >   > k k   J J [ o.o.o.o.o.o.o.o.o.o.o.o.o.o.o.",
"o... . . .o.o.o.o.o.o.o.o.o.o.o.o.[ J   9 +.+.x > :   > > k k   J J [ o.o.o.o.o.o.o.o.o.o.o.o.o.o.o.",
"o. .I I | ..o.o.o.o.o.o.o.o.o.o.o.[   J +.9 9 % > j   > i k k z     [ o.o.o.o.o.o.o.o.o.o.o.o.o.o.o.",
"o...| P P | ..o.o. .| |  .o.o.o.o.[ . J +.9 9 % > j   > k k k +     [ o.o.o.o.o.o.o.o.o.o.o.o.o.o.o.",
"o.o...| I P  .o. .} Y }  .o.o.o.o.3 J m 9 +.+.x > k   > k k k + J J ] { o.o.o.o... .....o.o.o.o.o.o.",
"o.o.o.o.| I  . .I P I  ...o.o.o.o.3 +.9 9 +.+.1 k j . > j k k O J J   } ..o.o.o.| I I | o.o.o.o.o.o.",
"o.o.o.o...| ....| |  .o.o.o.o.o.o.              k j > k k k k +       P |  ... .I P }  .o.o.o.o.o.o.",
"o.o.o.o.o.o.o.o.o.o.o.o.o.o.o.o.o.O > > > > k k k > > k k k k p >   | P P | ..| I I  .o.o.o.o.o.o.o.",
"o.o.o.o.o.o.o.o.o.o.o.o.o.o.o.o.o.o g k k k k g >   > g g > i > >   .. .I | o. . ...o.o.o.o.o.o.o.o.",
"o.o.o.o.o.o.o.o.o.o.o.o.o.o.o.o.o.o > > > > > h   o.  > k k > s   o.o... . .o.o.o.o.o.o.o.o.o.o.o.o.",
"o.o.o.o.o.o.o.o.o.o.o.o.o.o...o.o., > > > > k i   o.  > i k k p   o.o.o.o.o.o.o.o.o.o.o.o.o.o.o.o.o.",
"o.o.o.o.o.o.o.o.o.o.o.o.o...|  ...S a g p f g + o.o.o.H o a = M o.o.o.o.o.o.o.o.o.o.o.o.o.o.o.o.o.o.",
"o.o.o.o.o.o.o.o.o.o.o.o.o...I I  .|           o.o.o.o.o.U ,.,.L o.o.o.o.o.o.o.o.o.o.o.o.o.o.o.o.o.o.",
"o.o.o.o.o.o.o.o.o.o.o.o.o...} P I  .  ,.,.  o.o.o.o.o.o.U ,.,.L o.o.o.o.o.o.o.o.o.o.o.o.o.o.o.o.o.o.",
"o.o.o.o.o.o.o.o.o.o.o.o.o.o. .} I  .  ,.q.  o.o.o.o.o.o.[ e.t.O._ _ o.o.o.o.o.o.o.o.o.o.o.o.o.o.o.o.",
"o.o.o.o.o.o.o.o.o.o.o.o.o.o.o. .}  .  t.t.,.  o.o.o.o.o.0 > > > W W [ o.o.o.o.o.o.o.o.o.o.o.o.o.o.o.",
"o.o.o.o.o.o.o.o.o.o.o.o.o.o.o.....[ > W W W   o.o.o.o.o.O W > W > > O o.o.o.o.o.o.o.o.o.o.o.o.o.o.o.",
"o.o.o.o.o.o.o.o.o.o.o.o.o.o.o.o.o.[ % * t * * [ o.o.o.o.H H H H H H H o.o.o.o.o.o.o.o.o.o.o.o.o.o.o.",
"o.o.o.o.o.o.o.o.o.o.o.o.o.o.o.o.o.o.o.o.o.o.o.o.o.o.o.o.o.o.o.o.o.o.o.o.o.o.o.o.o.o.o.o.o.o.o.o.o.o."
};
