/* XPM */
static char *result[] = {
/* columns rows colors chars-per-pixel */
"50 50 82 1 ",
"  c #272736",
". c #3E2347",
"X c #323E4F",
"o c #3F3F4D",
"O c #3F3F4E",
"+ c #5E315B",
"@ c #2A4D43",
"# c #364A4A",
"$ c #39514D",
"% c #3D6E70",
"& c #4A4A59",
"* c #405253",
"= c #5B5D67",
"- c #5E5E6A",
"; c #5F5F6F",
": c #5A616A",
"> c #606070",
", c #636373",
"< c #646470",
"1 c #6A6A7A",
"2 c #6A6A7B",
"3 c #6B6B7B",
"4 c #6B6C7B",
"5 c #6D6D7A",
"6 c #6B6B7C",
"7 c #6F6F7E",
"8 c #32805C",
"9 c #32825C",
"0 c #33825D",
"q c #31845D",
"w c #34855E",
"e c #37855F",
"r c #3A8360",
"t c #348A61",
"y c #369064",
"u c #3C9469",
"i c #399869",
"p c #389969",
"a c #3B9E6D",
"s c #3B9E6E",
"d c #3BA06E",
"f c #3CA270",
"g c #3CA370",
"h c #6F6F80",
"j c #727282",
"k c #757581",
"l c #747780",
"z c #757586",
"x c #7B7B87",
"c c #7A7A8B",
"v c #7B7B8B",
"b c #7B7B8C",
"n c #7C7C8D",
"m c #818191",
"M c #828291",
"N c #828293",
"B c #868693",
"V c #848495",
"C c #8A8E97",
"Z c #8A8A9A",
"A c #9393A2",
"S c #9393A3",
"D c #9696A6",
"F c #9797A7",
"G c #9898A8",
"H c #9C9CAB",
"J c #A5A5B4",
"K c #A6A6B5",
"L c #A9A9B9",
"P c #ACACBB",
"I c #AEAEBD",
"U c #AFAFBD",
"Y c #AFB0BD",
"T c #B9B9C8",
"R c #BBBBCA",
"E c #BCBCCB",
"W c #BDBDCC",
"Q c #BEBECD",
"! c #C2C2D1",
"~ c #C3C3D2",
"^ c #C4C4D3",
"/ c #C6C6D5",
/* pixels */
"gggggggggggggggggggggggggggggggggggggggggggggggggg",
"gggggggggggggggggggggggggggggggggggggggggggggggggg",
"gggggggggggggggggggggggg  gggggggggggggggggggggggg",
"ggggggggggggggggggggggg XX ggggggggggggggggggggggg",
"gggggggggggggggggggggg X%%X gggggggggggggggggggggg",
"ggggggggggggggggggggg X%%%%X ggggggggggggggggggggg",
"gggggggggggggggggggg X%%gg%%X gggggggggggggggggggg",
"ggggggggggggggggggg X%%gggg%%X ggggggggggggggggggg",
"gggggggggggggggggg X%%gggggg%%X gggggggggggggggggg",
"gggggggggggggggggg X%gggggggg%% gggggggggggggggggg",
"ggggggggggggggggg XX%ggggggggg%X ggggggggggggggggg",
"gggd*5x@gggggggg XX%%ggggggggg%%X gggggggggggggggg",
"ggg#,L!Yugggggg XX%%ggggggg%ggg%XX ggggggggggggggg",
"ggy4nb^~=gggggg XX%gggggggg%%gg%%X ggggggggggggggg",
"ggqFWPbI7wgggggg %ggggggggggg%%%% gggggggggggggggg",
"gg8REVnZTrgggggg %gggggggggggg%%% gggggggggggggggg",
"gg&116;2A-ggggg X%gggggggggggggg%X ggggggggggggggg",
"gggggggggggggg X%%%ggg%%ggggggg%%%X gggggggggggggg",
"ggggggggggggg XX%%%%%%%ggggggggg%%%X ggggggggggggg",
"ggggggggggggg X%%ggg%%gggggggg%%%%%X ggggggggggggg",
"ggggggggggggg X%gggggggggggg%%%%gg%X ggggggggggggg",
"gggggggggggg XX%gggggggggg%%%%%ggg%%X gggggggggggg",
"gggggggggggg X%ggggggggggg%gg%%gggg%X gggggggggggg",
"ggggggggggg X%gggggggggggggggg%%gggg%X ggggggggggg",
"gggggggggg XX%%gg%%gg%%gggggggg%gg%%%XX gggggggggg",
"gggggggggg XX%%g%%%%%%%%%gggggggg%%%%XX gggggggggg",
"ggggggggggg  X%%%%%%ggg%%%ggggggg%%%X  ggggggggggg",
"ggggggggggggg X%gggggggggggggggggg%% ggggggggggggg",
"ggggggggggggg X%gggggggggggggggggg%X ggggggggggggg",
"gggggggggggg XX%%%gggg%ggggggggg%%%XX gggggggggggg",
"ggggggggggg XXX%%%%%gg%%gggggggg%X%XXX ggggggggggg",
"ggggggggggg   XX%XX%%%%%ggggggg%%XXX   ggggggggggg",
"gggggggggggggg XXXXX%%ggggggg%%XXXX gggggggggggggg",
"ggggggggggggggg XXXX%%%%%%%%%%XXXX ggggggggggggggg",
"gggggggggggggggg  XXX%%%%%XX%XXX  gggggggggggggggg",
"gggggggggggggggggg   XX%XXXXX   gggggggggggggggggg",
"ggggggggggggggggggggg XXXXXX ggggggggggggggggggggg",
"ggggggggggggggggggggg ..XX.. gggggggggd*5x@ggggggg",
"ggggggggggggggggggggg ...... ggggggggg#,L!Yugggggg",
"ggggggggggggggggggggg .+++.. ggggggggy4nb^~=gggggg",
"ggggggggggggggggggggg .+++.. ggggggggqFWPbI7wggggg",
"ggggggggggggggggggggg .+++.. gggggggg8REVnZTrggggg",
"ggggggggggggggggggggg .++++. gggggggg&116;2A-ggggg",
"gggplk<9igggggggggggg +++++. ggggggggggggggggggggg",
"ggsC!!Qm:afggggggggg .++..++. gggggggggggggggggggg",
"gg$/KJDhHBtggggggg  .++. .+...  gggggggggggggggggg",
"gejNvcMQ!U0gggggg ..++.   .++... ggggggggggggggggg",
"gO>3>;zSG1oggggggggggggggggggggggggggggggggggggggg",
"gggggggggggggggggggggggggggggggggggggggggggggggggg",
"gggggggggggggggggggggggggggggggggggggggggggggggggg"
};
